<svg width="120" height="26" viewBox="0 0 120 26" fill="none" xmlns="http://www.w3.org/2000/svg">
<path d="M16.668 25V9.972L9.98603 21.646H8.84203L2.13403 9.972V25H0.314026V6.54H2.18603L9.38803 19.176L16.642 6.54H18.488V25H16.668Z" fill="black"/>
<path d="M23.2188 6.54L29.2508 16.472L35.3348 6.54H37.3108L30.1608 18.136V25H28.3408V18.084L21.2168 6.54H23.2188Z" fill="black"/>
<path d="M60.2979 6.54V25H58.5039V16.368H47.5579V25H45.7379V6.54H47.5579V14.756H58.5039V6.54H60.2979Z" fill="black"/>
<path d="M72.3692 25.13C71.0692 25.13 69.8905 24.87 68.8332 24.35C67.7758 23.83 66.8658 23.128 66.1032 22.244C65.3405 21.3427 64.7512 20.3373 64.3352 19.228C63.9192 18.1013 63.7112 16.9487 63.7112 15.77C63.7112 14.5393 63.9278 13.3693 64.3612 12.26C64.7945 11.1333 65.4012 10.1367 66.1812 9.27C66.9785 8.386 67.9058 7.69266 68.9632 7.19C70.0205 6.67 71.1645 6.41 72.3952 6.41C73.6952 6.41 74.8738 6.67866 75.9312 7.216C76.9885 7.75333 77.8898 8.47266 78.6352 9.374C79.3978 10.2753 79.9872 11.2807 80.4032 12.39C80.8192 13.4993 81.0272 14.6347 81.0272 15.796C81.0272 17.0267 80.8105 18.2053 80.3772 19.332C79.9438 20.4413 79.3372 21.438 78.5572 22.322C77.7772 23.1887 76.8585 23.8733 75.8012 24.376C74.7438 24.8787 73.5998 25.13 72.3692 25.13ZM65.5312 15.77C65.5312 16.7753 65.6958 17.746 66.0252 18.682C66.3545 19.6007 66.8225 20.424 67.4292 21.152C68.0358 21.8627 68.7552 22.4347 69.5872 22.868C70.4365 23.284 71.3638 23.492 72.3692 23.492C73.4265 23.492 74.3712 23.2753 75.2032 22.842C76.0525 22.3913 76.7718 21.802 77.3612 21.074C77.9678 20.3287 78.4272 19.4967 78.7392 18.578C79.0512 17.6593 79.2072 16.7233 79.2072 15.77C79.2072 14.7647 79.0425 13.8027 78.7132 12.884C78.3838 11.9653 77.9072 11.142 77.2832 10.414C76.6765 9.686 75.9572 9.114 75.1252 8.698C74.2932 8.282 73.3745 8.074 72.3692 8.074C71.3292 8.074 70.3845 8.29066 69.5352 8.724C68.7032 9.15733 67.9838 9.74666 67.3772 10.492C66.7878 11.22 66.3285 12.0433 65.9992 12.962C65.6872 13.8807 65.5312 14.8167 65.5312 15.77Z" fill="black"/>
<path d="M100.813 25V9.972L94.1306 21.646H92.9866L86.2786 9.972V25H84.4586V6.54H86.3306L93.5326 19.176L100.787 6.54H102.633V25H100.813Z" fill="black"/>
<path d="M119.661 23.388V25H107.259V6.54H119.427V8.152H109.079V14.808H118.101V16.342H109.079V23.388H119.661Z" fill="black"/>
<path d="M93.9998 0.179146L104.995 4.04086L104.314 4.77325L93.7387 1.05896L83.1635 4.77325L82.4826 4.04086L93.4775 0.179146L93.6061 0.040863L93.7387 0.0874277L93.8713 0.040863L93.9998 0.179146Z" fill="black"/>
</svg>
